<?xml version="1.0" standalone="no"?><!DOCTYPE svg PUBLIC "-//W3C//DTD SVG 1.1//EN" "http://www.w3.org/Graphics/SVG/1.1/DTD/svg11.dtd"><svg t="1734595073297" class="icon" viewBox="0 0 1024 1024" version="1.1" xmlns="http://www.w3.org/2000/svg" p-id="1506" xmlns:xlink="http://www.w3.org/1999/xlink" width="200" height="200"><path d="M42.666667 213.333333a170.666667 170.666667 0 0 1 170.666666-170.666666h597.333334a170.666667 170.666667 0 0 1 170.666666 170.666666v437.333334a170.666667 170.666667 0 0 1-170.666666 170.666666h-208.597334l-310.997333 155.477334a42.666667 42.666667 0 1 1-38.144-76.288l320-160a42.624 42.624 0 0 1 19.072-4.522667H810.666667a85.333333 85.333333 0 0 0 85.333333-85.333333V213.333333a85.333333 85.333333 0 0 0-85.333333-85.333333H213.333333a85.333333 85.333333 0 0 0-85.333333 85.333333v437.333334a85.333333 85.333333 0 0 0 85.333333 85.333333h32a42.666667 42.666667 0 1 1 0 85.333333H213.333333a170.666667 170.666667 0 0 1-170.666666-170.666666V213.333333z m320 149.333334a42.666667 42.666667 0 0 1 42.666666 42.666666v85.333334a42.666667 42.666667 0 1 1-85.333333 0v-85.333334a42.666667 42.666667 0 0 1 42.666667-42.666666z m298.666666 0a42.666667 42.666667 0 0 1 42.666667 42.666666v85.333334a42.666667 42.666667 0 1 1-85.333333 0v-85.333334a42.666667 42.666667 0 0 1 42.666666-42.666666z" fill="#75C82B" p-id="1507"></path></svg>