<?xml version="1.0" standalone="no"?><!DOCTYPE svg PUBLIC "-//W3C//DTD SVG 1.1//EN" "http://www.w3.org/Graphics/SVG/1.1/DTD/svg11.dtd"><svg t="1734595086509" class="icon" viewBox="0 0 1024 1024" version="1.1" xmlns="http://www.w3.org/2000/svg" p-id="2520" xmlns:xlink="http://www.w3.org/1999/xlink" width="200" height="200"><path d="M261.333333 170.666667C234.837333 170.666667 213.333333 192.170667 213.333333 218.666667v450.688c0 26.453333 21.504 47.957333 48 47.957333h68.010667a42.666667 42.666667 0 0 1 42.666667 42.666667v66.986666l210.261333-105.130666a42.666667 42.666667 0 0 1 19.072-4.48h203.989333c26.496 0 48-21.504 48-48V533.333333a42.666667 42.666667 0 1 1 85.333334 0v136.021334c0 73.6-59.733333 133.290667-133.333334 133.290666H611.413333l-262.997333 131.498667A42.666667 42.666667 0 0 1 286.677333 896v-93.354667h-25.344A133.333333 133.333333 0 0 1 128 669.354667V218.709333C128 145.024 187.733333 85.333333 261.333333 85.333333H448a42.666667 42.666667 0 0 1 0 85.333334H261.333333zM554.666667 223.232a42.666667 42.666667 0 0 1 42.666666-42.666667h297.344a42.666667 42.666667 0 0 1 0 85.333334H597.333333a42.666667 42.666667 0 0 1-42.666666-42.666667z m0 170.666667a42.666667 42.666667 0 0 1 42.666666-42.666667h169.344a42.666667 42.666667 0 0 1 0 85.333333H597.333333a42.666667 42.666667 0 0 1-42.666666-42.666666z" fill="#75C82B" p-id="2521"></path></svg>