<?xml version="1.0" standalone="no"?><!DOCTYPE svg PUBLIC "-//W3C//DTD SVG 1.1//EN" "http://www.w3.org/Graphics/SVG/1.1/DTD/svg11.dtd"><svg t="1734595125727" class="icon" viewBox="0 0 1024 1024" version="1.1" xmlns="http://www.w3.org/2000/svg" p-id="8119" xmlns:xlink="http://www.w3.org/1999/xlink" width="200" height="200"><path d="M208.979592 1024h606.040816c115.461224 0 208.979592-93.518367 208.979592-208.979592V208.979592C1024 93.518367 930.481633 0 815.020408 0H208.979592C93.518367 0 0 93.518367 0 208.979592v606.040816c0 115.461224 93.518367 208.979592 208.979592 208.979592z" fill="#4BEB66" p-id="8120"></path><path d="M289.750204 729.443265C301.97551 744.489796 313.469388 762.357551 313.469388 777.926531c0 26.331429-32.914286 57.782857-47.020408 68.440816 21.942857-4.702041 73.142857-15.777959 104.489796-42.109388 14.524082-12.225306 37.093878-19.226122 59.559183-22.987755 26.226939 4.702041 53.498776 7.209796 81.502041 7.209796 207.725714 0 376.163265-136.777143 376.163265-305.423673C888.163265 314.305306 719.725714 177.632653 512 177.632653S135.836735 314.305306 135.836735 483.056327c0 101.146122 60.604082 190.798367 153.913469 246.386938z" fill="#FFFFFF" p-id="8121"></path></svg>